# xmcd CD database file
#
# Track frame offsets:
#	150
#	16993
#	39670
#	56278
#	75753
#	95503
#	114428
#	127950
#	143875
#	146578
#	159555
#	182370
#	206825
#
# Disc length: 2983 seconds
#
# Revision: 0
# Processed by: cddbd v1.4b42PL1 Copyright (c) Steve Scherf et al.
# Submitted via: CDex 1.40Beta8
#
DISCID=a20ba50d
DTITLE=Rollover - Rollover
DYEAR=1993
DGENRE=Blues
TTITLE0=Shipwreck
TTITLE1=Give It Up
TTITLE2=Burning Time
TTITLE3=Missing You
TTITLE4=Say A Prayer
TTITLE5=In This World
TTITLE6=Boxcar Billy
TTITLE7=Everything Keeps Rolling
TTITLE8=Love One Woman
TTITLE9=Milkfish
TTITLE10=Pick It Up (trick of the hand)
TTITLE11=At the Gates of love
TTITLE12=unknown
EXTD=YEAR: 1993 ID3G: 0
EXTT0=
EXTT1=
EXTT2=
EXTT3=
EXTT4=
EXTT5=
EXTT6=
EXTT7=
EXTT8=
EXTT9=
EXTT10=
EXTT11=
EXTT12=
PLAYORDER=
